<svg width="29" height="29" viewBox="0 0 29 29" fill="none" xmlns="http://www.w3.org/2000/svg">
<path d="M20.8438 10.1466V9.51562C20.8438 6.67453 16.5583 4.53125 10.875 4.53125C5.19168 4.53125 0.90625 6.67453 0.90625 9.51562V14.0469C0.90625 16.4133 3.87988 18.2938 8.15625 18.8568V19.4844C8.15625 22.3255 12.4417 24.4688 18.125 24.4688C23.8083 24.4688 28.0938 22.3255 28.0938 19.4844V14.9531C28.0938 12.6082 25.2141 10.7255 20.8438 10.1466ZM6.34375 16.6376C4.12457 16.018 2.71875 14.9973 2.71875 14.0469V12.453C3.64312 13.1078 4.88129 13.6357 6.34375 13.9902V16.6376ZM15.4062 13.9902C16.8687 13.6357 18.1069 13.1078 19.0312 12.453V14.0469C19.0312 14.9973 17.6254 16.018 15.4062 16.6376V13.9902ZM13.5938 22.0751C11.3746 21.4555 9.96875 20.4348 9.96875 19.4844V19.012C10.2667 19.0233 10.568 19.0312 10.875 19.0312C11.3145 19.0312 11.7439 19.0165 12.1653 18.9916C12.6334 19.1592 13.1103 19.3014 13.5938 19.4175V22.0751ZM13.5938 17.0205C12.6936 17.1535 11.7849 17.2197 10.875 17.2188C9.9651 17.2197 9.05638 17.1535 8.15625 17.0205V14.3255C9.05773 14.4429 9.96592 14.5012 10.875 14.5C11.7841 14.5012 12.6923 14.4429 13.5938 14.3255V17.0205ZM20.8438 22.458C19.0409 22.7222 17.2091 22.7222 15.4062 22.458V19.7562C16.3074 19.8774 17.2157 19.9379 18.125 19.9375C19.0341 19.9387 19.9423 19.8804 20.8438 19.763V22.458ZM26.2812 19.4844C26.2812 20.4348 24.8754 21.4555 22.6562 22.0751V19.4277C24.1187 19.0732 25.3569 18.5453 26.2812 17.8905V19.4844Z" fill="#006FE8"/>
</svg>
